<?xml version="1.0" standalone="no"?>
<!DOCTYPE svg PUBLIC "-//W3C//DTD SVG 20010904//EN"
 "http://www.w3.org/TR/2001/REC-SVG-20010904/DTD/svg10.dtd">
<svg version="1.0" xmlns="http://www.w3.org/2000/svg"
 width="512.000000pt" height="512.000000pt" viewBox="0 0 512.000000 512.000000"
 preserveAspectRatio="xMidYMid meet">

<g transform="translate(0.000000,512.000000) scale(0.100000,-0.100000)"
fill="#B71F35" stroke="none">
<path d="M1700 4851 c-796 -257 -836 -271 -867 -304 -38 -42 -50 -94 -34 -145
7 -23 84 -125 202 -267 105 -126 195 -231 199 -233 4 -2 73 15 153 37 687 188
1272 222 1933 111 173 -29 396 -79 557 -124 l88 -25 146 177 c81 97 168 203
195 235 56 67 72 116 57 170 -17 61 -50 90 -136 120 -263 90 -1585 509 -1618
513 -33 3 -194 -46 -875 -265z"/>
<path d="M2245 3795 c-265 -26 -533 -75 -788 -145 -80 -22 -148 -40 -152 -40
-18 0 56 -107 109 -158 206 -197 629 -312 1151 -312 584 0 1050 148 1215 386
16 22 32 52 35 65 6 25 4 26 -162 66 -299 74 -432 99 -673 128 -186 23 -559
28 -735 10z"/>
<path d="M1379 3022 c-3 -196 11 -306 61 -454 53 -157 142 -305 261 -433 32
-34 59 -65 59 -69 0 -3 -15 -6 -34 -6 -32 0 -197 -28 -204 -35 -6 -5 273 -555
281 -555 7 0 197 157 399 328 14 12 26 12 90 -3 166 -38 390 -36 556 6 l82 20
205 -175 c112 -97 207 -176 210 -176 7 0 261 515 267 539 2 11 -20 19 -87 33
-49 9 -107 17 -127 18 -21 0 -38 3 -38 6 0 4 27 35 59 69 160 171 266 383 307
608 14 79 21 323 10 335 -3 3 -43 -13 -88 -36 -169 -83 -414 -152 -678 -188
-178 -25 -635 -25 -810 -1 -271 38 -490 99 -675 186 l-105 50 -1 -67z"/>
<path d="M1134 1874 c-174 -98 -361 -264 -484 -429 -67 -91 -165 -274 -205
-385 -70 -194 -101 -459 -93 -785 4 -176 12 -205 71 -249 28 -21 30 -21 1018
-24 l989 -2 0 795 0 795 -304 -254 c-319 -268 -333 -276 -410 -262 -19 4 -46
16 -61 27 -17 14 -93 155 -226 420 -109 220 -202 399 -207 399 -4 0 -43 -21
-88 -46z"/>
<path d="M3719 1528 c-105 -210 -201 -394 -213 -406 -48 -53 -114 -66 -177
-34 -28 14 -451 369 -561 470 l-28 26 0 -792 0 -792 964 2 c963 3 965 3 993
24 59 44 67 73 71 249 6 219 -12 475 -42 605 -83 361 -290 676 -588 896 -60
44 -180 118 -212 130 -12 4 -59 -82 -207 -378z m241 -786 c103 -51 108 -201 8
-262 -31 -19 -51 -20 -311 -20 -299 0 -307 1 -356 54 -19 20 -26 40 -28 84 -5
67 16 110 69 142 31 19 51 20 308 20 242 0 279 -2 310 -18z"/>
</g>
</svg>
