<?xml version="1.0" standalone="no"?>
<!DOCTYPE svg PUBLIC "-//W3C//DTD SVG 20010904//EN"
 "http://www.w3.org/TR/2001/REC-SVG-20010904/DTD/svg10.dtd">
<svg version="1.0" xmlns="http://www.w3.org/2000/svg"
 width="512.000000pt" height="512.000000pt" viewBox="0 0 512.000000 512.000000"
 preserveAspectRatio="xMidYMid meet">

<g transform="translate(0.000000,512.000000) scale(0.100000,-0.100000)"
fill="#B71F35" stroke="none">
<path d="M573 5100 c-17 -10 -37 -28 -42 -39 -8 -14 -11 -372 -11 -1155 l0
-1136 324 0 324 0 110 55 c481 241 845 657 1021 1169 86 250 110 430 111 834
l0 292 -902 0 c-876 0 -904 -1 -935 -20z"/>
<path d="M2710 4832 c0 -315 13 -471 54 -644 141 -593 535 -1092 1078 -1363
l110 -55 324 0 324 0 0 1138 c0 1015 -2 1140 -16 1160 -38 54 0 52 -974 52
l-900 0 0 -288z"/>
<path d="M58 2454 c-50 -26 -58 -58 -58 -219 0 -156 8 -188 52 -219 20 -14
272 -16 2508 -16 2236 0 2488 2 2508 16 44 31 52 63 52 219 0 162 -8 193 -60
220 -26 13 -311 15 -2502 15 -2168 -1 -2476 -3 -2500 -16z"/>
<path d="M350 1205 l0 -495 225 0 225 0 0 495 0 495 -225 0 -225 0 0 -495z"/>
<path d="M1670 1205 l0 -495 230 0 230 0 -2 493 -3 492 -227 3 -228 2 0 -495z"/>
<path d="M2997 1693 c-4 -3 -7 -226 -7 -495 l0 -488 230 0 230 0 0 495 0 495
-223 0 c-123 0 -227 -3 -230 -7z"/>
<path d="M4320 1205 l0 -495 225 0 225 0 0 495 0 495 -225 0 -225 0 0 -495z"/>
<path d="M350 250 c0 -178 8 -208 60 -235 26 -13 274 -15 2150 -15 1876 0
2124 2 2150 15 52 27 60 57 60 235 l0 160 -2210 0 -2210 0 0 -160z"/>
</g>
</svg>
