<svg width="60" height="60" viewBox="0 0 60 60" fill="none" xmlns="http://www.w3.org/2000/svg">
<path d="M46.875 20.625H28.125C27.6277 20.625 27.1508 20.8225 26.7992 21.1742C26.4475 21.5258 26.25 22.0027 26.25 22.5V30C26.2546 32.6561 27.198 35.2251 28.9136 37.2529C30.6291 39.2807 33.0063 40.6367 35.625 41.0812V52.5H30V56.25H45V52.5H39.375V41.0812C41.9937 40.6367 44.3709 39.2807 46.0864 37.2529C47.802 35.2251 48.7454 32.6561 48.75 30V22.5C48.75 22.0027 48.5525 21.5258 48.2008 21.1742C47.8492 20.8225 47.3723 20.625 46.875 20.625ZM45 30C45 31.9891 44.2098 33.8968 42.8033 35.3033C41.3968 36.7098 39.4891 37.5 37.5 37.5C35.5109 37.5 33.6032 36.7098 32.1967 35.3033C30.7902 33.8968 30 31.9891 30 30V24.375H45V30Z" fill="#B71F35"/>
<path d="M28.125 1.875H18.75C18.2527 1.875 17.7758 2.07254 17.4242 2.42417C17.0725 2.77581 16.875 3.25272 16.875 3.75V17.5687C15.053 18.6361 13.5627 20.1879 12.5697 22.0514C11.5767 23.915 11.1198 26.0174 11.25 28.125V54.375C11.25 54.8723 11.4475 55.3492 11.7992 55.7008C12.1508 56.0525 12.6277 56.25 13.125 56.25H22.5V52.5H15V28.125C15 22.1475 19.1831 20.5875 19.3425 20.5294L20.625 20.1V5.625H26.25V15H30V3.75C30 3.25272 29.8024 2.77581 29.4508 2.42417C29.0992 2.07254 28.6223 1.875 28.125 1.875Z" fill="#B71F35"/>
</svg>
