<?xml version="1.0" standalone="no"?>
<!DOCTYPE svg PUBLIC "-//W3C//DTD SVG 20010904//EN"
 "http://www.w3.org/TR/2001/REC-SVG-20010904/DTD/svg10.dtd">
<svg version="1.0" xmlns="http://www.w3.org/2000/svg"
 width="512.000000pt" height="512.000000pt" viewBox="0 0 512.000000 512.000000"
 preserveAspectRatio="xMidYMid meet">

<g transform="translate(0.000000,512.000000) scale(0.100000,-0.100000)"
fill="#B71F35" stroke="none">
<path d="M1410 5109 c-30 -12 -515 -493 -536 -531 -33 -63 -6 -149 58 -188 39
-24 107 -26 146 -6 15 8 106 94 202 190 96 97 179 176 185 176 6 0 89 -79 185
-176 96 -96 187 -182 202 -190 15 -8 47 -14 71 -14 60 0 106 32 131 92 36 87
28 99 -252 382 -136 136 -261 254 -279 262 -37 16 -77 17 -113 3z"/>
<path d="M2488 5099 c-43 -22 -78 -81 -78 -129 0 -17 9 -47 19 -68 19 -36 462
-483 511 -516 15 -10 45 -16 76 -16 68 0 88 16 361 291 252 255 268 281 223
374 -34 69 -115 102 -187 74 -15 -6 -111 -93 -213 -195 l-185 -184 -175 176
c-96 96 -192 184 -212 195 -47 24 -93 24 -140 -2z"/>
<path d="M725 4001 c-33 -9 -85 -30 -115 -46 -80 -43 -190 -156 -228 -235 -65
-132 -62 -36 -62 -1899 0 -1674 0 -1695 20 -1736 13 -26 34 -49 59 -63 l39
-22 1810 2 1811 3 27 21 c15 11 37 33 48 48 l21 27 0 1727 0 1727 -22 70 c-60
190 -213 337 -394 380 -56 13 -254 15 -1509 14 -1337 0 -1449 -2 -1505 -18z
m1365 -1991 l0 -1710 -735 0 -735 0 0 1598 c0 1754 -3 1657 60 1734 16 20 53
48 82 62 l52 26 638 0 638 0 0 -1710z m1605 1696 c60 -26 104 -66 132 -124
l28 -57 3 -1612 2 -1613 -735 0 -735 0 0 1710 0 1710 635 0 c532 0 641 -2 670
-14z"/>
<path d="M4570 2458 c-67 -45 -89 -132 -49 -198 27 -44 44 -57 92 -70 78 -22
167 34 183 115 9 49 -19 119 -58 147 -47 33 -124 36 -168 6z"/>
<path d="M4582 1823 c-97 -47 -108 -192 -20 -254 72 -52 179 -25 217 55 26 53
26 79 1 131 -36 74 -125 104 -198 68z"/>
</g>
</svg>
