<?xml version="1.0" standalone="yes"?>
<svg xmlns="http://www.w3.org/2000/svg" width="512" height="512">
<path style="fill:transparent; stroke:none;" d="M0 0L0 326L1 326C8.66267 299.401 37.3013 298.632 55 315.09C84.2657 342.302 111.741 371.741 140 400C159.726 419.726 181.631 438.63 199.56 460C213.35 476.436 211.232 506.499 186 511L186 512L512 512L512 186L511 186C503.337 212.599 474.699 213.368 457 196.91C427.734 169.698 400.259 140.259 372 112C352.274 92.2736 330.369 73.3704 312.44 52C298.65 35.5643 300.768 5.50061 326 1L297 0L230 0L0 0z"/>
<path style="fill:#B71F35; stroke:none;" d="M326 0.46759C302.96 4.81421 297.354 33.1331 310.043 50C322.152 66.0951 338.774 79.7736 353 94L435 176C449.225 190.225 465.887 213.715 489 208.1C508.399 203.388 517.734 181.597 508.726 164C502.619 152.069 489.392 142.392 480 133C476.208 129.208 464.056 120.69 464.056 115C464.056 111.247 469.61 107.391 472 105C479.419 97.58 491.992 88.8764 495.991 79C498.206 73.5284 497.15 66.6017 493.606 62C483.528 48.9171 469.678 37.6739 458 26C451.372 19.3746 445.165 13.0597 435 15.3943C424.412 17.8262 414.404 32.5973 407 40C404.521 42.4783 400.097 48.869 396 47.7932C390.623 46.3813 384.832 37.8315 381 34C365.688 18.6877 350.522 -4.15857 326 0.46759z"/>
<path style="fill:transparent; stroke:none;" d="M341 0L341 1C357.255 5.09781 370.567 24.5669 382 36C385.603 39.603 390.889 47.3803 396 48.6543C400.642 49.8115 406.176 41.8244 409 39C417.237 30.7632 428.73 13.1905 442 15.2145C448.729 16.2408 453.47 22.4702 458 27C468.332 37.3316 478.735 47.5978 488.996 58C494.629 63.7105 499.656 70.7743 495.543 79C490.619 88.8487 478.721 97.276 471 105C468.479 107.522 462.307 111.833 463.346 116C464.62 121.111 472.397 126.397 476 130C487.715 141.715 506.264 154.562 511 171L512 171L512 0L341 0z"/>
<path style="fill:#B71F35; stroke:none;" d="M242 42.5178C217.493 47.7462 211.901 76.2322 226.465 94C242.034 112.995 261.633 129.633 279 147L383 251C399.625 267.625 420.79 299.948 448 292.51C469.665 286.588 476.071 259.693 462.532 243C447.086 223.954 427.34 207.34 410 190L306 86C289.894 69.894 268.366 36.8926 242 42.5178M269 179.346C262.069 181.074 253.959 193.041 249 198L199 248C194.487 252.513 179.207 263.315 179.207 270C179.207 274.883 187.837 280.837 191 284L227 320C230.243 323.243 237.776 333.957 243 332.654C249.931 330.926 258.041 318.959 263 314L313 264C317.513 259.487 332.793 248.685 332.793 242C332.793 237.117 324.163 231.163 321 228L285 192C281.757 188.757 274.224 178.043 269 179.346M69 218.439C46.4332 221.956 34.0406 247.868 47.9282 267C62.3278 286.837 83.674 303.674 101 321L206 426C222.106 442.106 243.634 475.107 270 469.482C294.507 464.254 300.099 435.768 285.535 418C269.966 399.005 250.367 382.367 233 365L131 263C115.779 247.779 93.7511 214.581 69 218.439M25 303.465C4.52505 307.155 -6.14321 329.603 3.27392 348C9.19556 359.568 21.897 368.897 31 378C34.958 381.958 47.9444 391.092 47.9444 397C47.9444 400.753 42.3905 404.609 40 407C32.581 414.42 20.0076 423.124 16.0093 433C11.9916 442.924 18.446 450.435 25 457C35.6561 467.674 46.2624 478.404 57 488.996C62.417 494.34 68.008 498.455 76 496.941C86.8083 494.894 96.5518 480.448 104 473C106.627 470.373 111.674 463.071 116 464.207C121.377 465.619 127.168 474.168 131 478C146.414 493.414 162.149 517.024 187 511.319C209.357 506.187 214.439 478.592 201.957 462C189.848 445.905 173.226 432.226 159 418L78 337C64.1165 323.116 47.5411 299.402 25 303.465z"/>
<path style="fill:transparent; stroke:none;" d="M0 341L0 512L171 512L171 511C154.745 506.902 141.433 487.433 130 476C126.397 472.397 121.111 464.62 116 463.346C111.833 462.307 107.522 468.479 105 471C97.3232 478.673 88.7886 490.829 79.0008 495.685C70.7682 499.77 63.7132 494.632 58 488.996C47.9334 479.066 37.9986 468.999 28 459C23.6567 454.657 17.5566 450.08 15.6528 444C11.2016 429.785 31.4265 416.574 40 408C42.6167 405.383 48.7932 401.101 48.7932 397C48.7932 391.641 38.5108 384.511 35 381C22.0358 368.036 10.1388 356.072 0 341z"/>
</svg>
