<?xml version="1.0" standalone="no"?>
<!DOCTYPE svg PUBLIC "-//W3C//DTD SVG 20010904//EN"
 "http://www.w3.org/TR/2001/REC-SVG-20010904/DTD/svg10.dtd">
<svg version="1.0" xmlns="http://www.w3.org/2000/svg"
 width="512.000000pt" height="512.000000pt" viewBox="0 0 512.000000 512.000000"
 preserveAspectRatio="xMidYMid meet">

<g transform="translate(0.000000,512.000000) scale(0.100000,-0.100000)"
fill="#B71F35" stroke="none">
<path d="M1050 5105 c-337 -68 -587 -329 -639 -665 -9 -56 -11 -622 -9 -2207
l3 -2132 21 -27 c11 -15 33 -37 48 -48 l27 -21 2059 0 2059 0 27 21 c15 11 37
33 48 48 l21 27 0 2172 c0 1997 -1 2177 -17 2232 -29 106 -58 172 -107 247
-114 174 -261 280 -481 346 -50 15 -184 17 -1525 19 -1185 1 -1483 -1 -1535
-12z m2985 -320 c87 -23 167 -70 228 -134 99 -104 137 -210 137 -383 l0 -108
-1840 0 -1840 0 0 108 c0 173 38 279 137 383 59 62 141 111 224 133 84 23
2867 23 2954 1z m365 -2705 l0 -1760 -1840 0 -1840 0 0 1760 0 1760 1840 0
1840 0 0 -1760z"/>
<path d="M1135 4626 c-101 -44 -125 -178 -46 -257 112 -113 296 -12 267 146
-18 94 -131 151 -221 111z"/>
<path d="M1775 4626 c-101 -44 -125 -178 -46 -257 112 -113 296 -12 267 146
-18 94 -131 151 -221 111z"/>
<path d="M2415 4626 c-97 -43 -124 -171 -54 -251 45 -51 78 -57 301 -53 215 3
223 5 272 72 29 39 29 133 0 172 -50 67 -55 69 -282 71 -157 2 -214 0 -237
-11z"/>
<path d="M2350 3585 c-572 -81 -1054 -485 -1234 -1035 -121 -374 -89 -797 89
-1152 68 -136 145 -246 256 -362 516 -541 1321 -630 1949 -215 124 82 325 282
404 401 111 168 189 351 226 533 114 542 -46 1055 -446 1434 -331 314 -790
459 -1244 396z m470 -334 c398 -91 722 -374 866 -758 l23 -61 -63 -30 c-35
-17 -104 -57 -154 -91 -111 -76 -154 -91 -252 -91 -98 0 -137 14 -251 90 -119
81 -198 117 -293 135 -98 19 -174 19 -272 0 -95 -18 -174 -54 -293 -135 -114
-76 -153 -90 -251 -90 -98 0 -137 14 -251 90 -50 34 -120 76 -155 92 l-63 30
25 66 c124 331 393 594 729 715 62 22 168 47 260 61 68 10 312 -4 395 -23z
m-111 -1145 c29 -14 81 -46 116 -71 76 -55 191 -109 263 -124 75 -16 245 -13
320 4 77 18 164 61 264 131 43 30 80 54 84 54 11 0 -3 -177 -21 -258 -49 -236
-158 -435 -329 -608 -169 -169 -371 -279 -606 -330 -106 -23 -352 -26 -455 -5
-245 48 -455 160 -631 335 -211 210 -330 472 -350 770 l-7 98 24 -12 c13 -7
51 -32 84 -55 83 -59 173 -102 247 -120 75 -17 245 -20 320 -4 75 16 187 69
278 134 117 81 159 96 272 90 57 -2 89 -9 127 -29z"/>
</g>
</svg>
