<svg width="58" height="47" viewBox="0 0 58 47" fill="#B71F35" xmlns="http://www.w3.org/2000/svg">
<path fill="#B71F35" d="M51.5 16.3623V5.8125C51.4983 4.32118 50.9051 2.89143 49.8506 1.83691C48.7961 0.782386 47.3663 0.189206 45.875 0.1875H12.125C10.6337 0.189206 9.20393 0.782386 8.14941 1.83691C7.09489 2.89143 6.50171 4.32118 6.5 5.8125V16.3623C4.89108 16.7801 3.46614 17.7197 2.44828 19.0339C1.43043 20.3481 0.87712 21.9627 0.875 23.625V36.75C0.876117 37.7442 1.27156 38.6974 1.97458 39.4004C2.6776 40.1034 3.63078 40.4989 4.625 40.5H6.5V46.125H10.25V40.5H47.75V46.125H51.5V40.5H53.375C54.3692 40.4989 55.3224 40.1034 56.0254 39.4004C56.7284 38.6974 57.1239 37.7442 57.125 36.75V23.625C57.1229 21.9627 56.5696 20.3481 55.5517 19.0339C54.5339 17.7197 53.1089 16.7801 51.5 16.3623ZM12.125 36.75H4.625V23.625C4.625 22.6304 5.02009 21.6766 5.72335 20.9734C6.42661 20.2701 7.38044 19.875 8.375 19.875C9.36956 19.875 10.3234 20.2701 11.0267 20.9734C11.7299 21.6766 12.125 22.6304 12.125 23.625V36.75ZM42.125 36.75H15.875V25.5H42.125V36.75ZM42.3623 21.75H15.6377C15.3001 20.4539 14.6228 19.2713 13.6758 18.3242C12.7287 17.3772 11.5461 16.6999 10.25 16.3623V5.8125C10.2506 5.3154 10.4483 4.83883 10.7998 4.48733C11.1513 4.13582 11.6279 3.93809 12.125 3.9375H45.875C46.3721 3.93809 46.8487 4.13582 47.2002 4.48733C47.5517 4.83883 47.7494 5.3154 47.75 5.8125V16.3623C46.4539 16.6999 45.2713 17.3772 44.3242 18.3242C43.3772 19.2713 42.6999 20.4539 42.3623 21.75ZM53.375 36.75H45.875V23.625C45.875 22.6304 46.2701 21.6766 46.9734 20.9734C47.6766 20.2701 48.6304 19.875 49.625 19.875C50.6196 19.875 51.5734 20.2701 52.2766 20.9734C52.9799 21.6766 53.375 22.6304 53.375 23.625L53.3773 36.75H53.375Z" fill="#444444"/>
</svg>
