<?xml version="1.0" standalone="no"?>
<!DOCTYPE svg PUBLIC "-//W3C//DTD SVG 20010904//EN"
 "http://www.w3.org/TR/2001/REC-SVG-20010904/DTD/svg10.dtd">
<svg version="1.0" xmlns="http://www.w3.org/2000/svg"
 width="512.000000pt" height="512.000000pt" viewBox="0 0 512.000000 512.000000"
 preserveAspectRatio="xMidYMid meet">

<g transform="translate(0.000000,512.000000) scale(0.100000,-0.100000)"
fill="#B71F35" stroke="none">
<path d="M1162 5109 c-70 -13 -106 -39 -110 -78 -5 -53 55 -101 258 -206 215
-111 448 -250 585 -350 141 -102 281 -243 324 -324 28 -53 30 -62 15 -57 -34
10 -265 34 -399 41 -141 8 -380 -6 -535 -31 -410 -66 -770 -233 -1013 -471
-72 -70 -107 -125 -107 -168 0 -90 92 -107 290 -54 373 98 608 152 855 193
272 45 342 51 600 51 265 0 348 -10 468 -56 l53 -20 -126 -127 c-261 -263
-449 -530 -629 -897 -216 -437 -330 -854 -372 -1353 -16 -190 -6 -697 15 -800
47 -226 214 -398 385 -396 79 1 131 24 184 83 91 101 106 163 123 526 30 654
117 1163 306 1800 80 269 221 656 331 908 39 90 30 93 124 -48 223 -337 381
-686 469 -1040 44 -178 84 -237 141 -206 46 24 104 217 122 407 22 239 -19
456 -133 707 l-27 59 58 -33 c441 -249 917 -605 1249 -936 141 -139 206 -183
243 -163 58 30 34 185 -69 445 -182 460 -566 866 -1020 1077 -199 93 -331 139
-555 193 l-130 31 105 41 c170 66 348 112 550 144 36 5 169 13 296 18 216 7
234 9 280 32 43 21 49 28 52 58 5 47 -48 99 -154 150 -298 145 -742 170 -1214
67 -63 -13 -146 -33 -185 -44 l-70 -19 -46 83 c-65 115 -160 234 -273 341
-251 238 -575 380 -958 422 -113 13 -293 13 -356 0z"/>
</g>
</svg>
