<?xml version="1.0" standalone="no"?>
<!DOCTYPE svg PUBLIC "-//W3C//DTD SVG 20010904//EN"
 "http://www.w3.org/TR/2001/REC-SVG-20010904/DTD/svg10.dtd">
<svg version="1.0" xmlns="http://www.w3.org/2000/svg"
 width="512.000000pt" height="512.000000pt" viewBox="0 0 512.000000 512.000000"
 preserveAspectRatio="xMidYMid meet">

<g transform="translate(0.000000,512.000000) scale(0.100000,-0.100000)"
fill="#B71F35" stroke="none">
<path d="M2464 5102 c-77 -27 -145 -75 -226 -160 -259 -272 -489 -840 -631
-1562 -54 -272 -52 -256 -28 -239 11 8 44 31 74 52 153 108 397 128 560 46 23
-12 86 -53 139 -91 167 -119 250 -119 417 2 54 38 123 81 153 94 171 76 395
55 545 -51 30 -21 63 -44 74 -52 24 -17 26 -33 -27 239 -115 580 -296 1088
-499 1396 -84 127 -223 265 -309 305 -85 40 -169 47 -242 21z"/>
<path d="M1828 5015 c-235 -71 -511 -200 -708 -330 -527 -350 -904 -862 -1080
-1463 -12 -41 -19 -80 -16 -87 2 -7 26 -26 53 -42 42 -24 58 -28 129 -28 89 0
74 -7 256 116 111 75 179 100 298 106 158 9 264 -26 408 -134 41 -30 75 -53
78 -51 2 2 19 89 38 194 123 666 301 1201 522 1565 31 51 66 107 78 123 48 65
51 63 -56 31z"/>
<path d="M3206 5029 c4 -8 29 -45 55 -84 246 -367 450 -954 579 -1669 16 -93
32 -172 35 -174 2 -3 37 20 77 51 142 107 249 143 408 134 119 -6 187 -31 298
-106 182 -123 167 -116 256 -116 71 0 87 4 129 28 27 16 51 35 54 43 7 18 -57
220 -112 356 -197 482 -544 902 -985 1193 -197 130 -478 262 -690 324 -41 12
-83 25 -94 28 -14 4 -16 2 -10 -8z"/>
<path d="M2410 2294 l0 -484 -660 0 -660 0 0 -150 0 -150 122 0 121 0 485
-347 c386 -276 481 -349 469 -357 -8 -6 -188 -135 -400 -286 l-386 -275 0
-122 -1 -123 150 0 150 0 0 44 0 44 303 216 302 216 3 -260 2 -260 150 0 150
0 2 261 3 261 303 -217 302 -217 0 -44 0 -44 150 0 150 0 0 123 0 122 -400
285 c-306 218 -397 287 -387 296 6 6 224 163 484 348 l472 336 120 0 121 0 0
150 0 150 -660 0 -660 0 0 484 0 485 -37 -7 c-21 -4 -72 -7 -113 -7 -41 0 -92
3 -112 7 l-38 7 0 -485z"/>
<path d="M0 830 l0 -830 150 0 150 0 0 345 0 345 305 0 305 0 0 -345 0 -345
150 0 150 0 0 495 0 495 -455 0 -455 0 0 335 0 335 -150 0 -150 0 0 -830z"/>
<path d="M4820 1325 l0 -335 -455 0 -455 0 0 -495 0 -495 150 0 150 0 0 345 0
345 305 0 305 0 0 -345 0 -345 150 0 150 0 0 830 0 830 -150 0 -150 0 0 -335z"/>
</g>
</svg>
