<?xml version="1.0" standalone="yes"?>
<svg xmlns="http://www.w3.org/2000/svg" width="512" height="512">
<path style="fill:transparent; stroke:none;" d="M0 0L0 458L1 458C3.00623 444.415 12.7192 435.281 22 426L62 386L129 319C135.547 312.453 147.006 295.569 156 293.207C160.728 291.965 167.092 301.092 170 304L207 341C210.042 344.042 220.082 351.093 218.793 356C217.712 360.118 211.9 364.1 209 367L182 394L97 479C84.3757 491.624 71.1846 509.325 52 511L52 512L457 512L457 511C431.492 505.096 414.852 476.113 397.975 458C353.175 409.916 312.454 357.485 266 311L265 311C259.853 316.147 249.33 331.406 242 332.369C235.781 333.185 224.14 317.14 220 313L157 250L89 182C57.64 150.64 31.2605 124.305 28.0895 78C26.1741 50.0293 37.7685 26.2957 44 0L0 0z"/>
<path style="fill:#B71F35; stroke:none;" d="M265 311C297.764 343.767 328.217 379.985 358.576 415C377.626 436.972 397.377 458.385 416.831 480C426.98 491.276 436.128 504.461 451 509.655C491.276 523.72 527.461 479.783 505.649 443C497.07 428.533 481.801 416.801 470 405L400 335L174 109L82 17C72.8868 7.88675 67.4336 -0.000854492 54 0C50.9941 0.000183105 46.3657 -0.828857 44.0748 1.60339C40.9123 4.96127 39.6013 11.7274 38.054 16C32.9193 30.1788 30.3241 45.0676 28.831 60C26.135 86.9637 31.2973 115.306 46.7461 138C59.7364 157.082 78.7533 172.753 95 189L176 270L224 318C227.721 321.721 236.182 333.765 242 333.079C249.214 332.228 260.993 316.689 265 311z"/>
<path style="fill:transparent; stroke:none;" d="M65 0C74.6296 13.6704 89.1766 25.1766 101 37L172 108L392 328L476 412C489.377 425.377 506.934 438.559 511 458L512 458L512 107C500.528 115.081 490.918 127.082 481 137L425 193C414.132 203.868 403.602 217.169 390 224.688C378.864 230.843 367.521 233.596 355 235.156C351.41 235.603 346.527 237.839 343 236.647C336.677 234.511 330.627 225.627 326 221L290 185C285.528 180.528 277.5 175.015 275.212 169C272.748 162.521 277.86 145.727 279.746 139C285.838 117.275 302.59 102.41 318 87L374 31C383.918 21.082 395.919 11.4717 404 0L65 0z"/>
<path style="fill:#B71F35; stroke:none;" d="M512 107L512 106C507.436 101.436 496.713 86.2068 490 86.2068C483.964 86.2068 475.017 98.9827 471 103L426 148C422.375 151.625 414.47 162.944 409 162.944C404.086 162.944 396.044 152.544 393.117 149C386.553 141.051 411.265 122.735 417 117L455 79C458.338 75.6616 467.793 69.1247 467.793 64C467.793 57.2866 452.564 46.5641 448 42L447 42L395 94L367 123C362.824 118.824 349.056 109.152 349.056 103C349.056 96.8766 362.877 87.1228 367 83L411 39C414.681 35.3187 425.793 27.5888 425.793 22C425.793 16.5201 412.343 5.2529 408 2.37653C401.826 -1.71228 393.874 10.1261 390 14L342 62C314.471 89.5292 281.428 113.955 276.833 155C276.375 159.098 273.968 163.924 274.502 168C275.04 172.104 279.268 175.262 282 178L304 200L330 226C333.481 229.481 337.369 234.935 342 236.879C346.997 238.976 358.562 234.979 364 234.08C397.159 228.599 417.483 201.517 440 179L512 107z"/>
<path style="fill:transparent; stroke:none;" d="M406 0C409.941 5.59537 424.944 15.1427 424.944 22C424.944 28.3369 410.287 38.7131 406 43L362 87C358.489 90.5108 348.207 97.6406 348.207 103C348.207 109.281 361.765 118.765 366 123L367 123L419 71L447 42L448 42C451.527 47.0067 468.423 58.7937 466.793 65C465.22 70.9892 455.289 77.7111 451 82L407 126C402.49 130.51 391.924 137.668 390.346 144C389.091 149.031 402.798 161.249 407 163.248C411.039 165.17 414.47 160.51 417 157.999L438 137L476 99C479.114 95.8855 485.217 87.0556 490 87.0556C496.857 87.0556 506.405 102.059 512 106L512 0L406 0z"/>
<path style="fill:#B71F35; stroke:none;" d="M156 292.346C151.52 293.463 147.14 299.86 144 303L117 330L40 407C28.0378 418.962 11.0989 431.366 3.90123 447C-11.4842 480.418 17.6745 518.412 54 511.192C74.1135 507.195 87.2184 489.782 101 476L182 395L209 368C212.14 364.86 218.537 360.48 219.654 356C220.863 351.15 211.968 344.968 209 342L171 304C167.893 300.893 161.043 291.089 156 292.346z"/>
<path style="fill:transparent; stroke:none;" d="M0 476L0 512L39 512L39 511C16.3374 509.149 10.3335 492.422 0 476M511 476C508.467 493.14 493.075 508.478 476 511L476 512L512 512C512 501.613 515.011 485.56 511 476z"/>
</svg>
