<?xml version="1.0" standalone="no"?>
<!DOCTYPE svg PUBLIC "-//W3C//DTD SVG 20010904//EN"
 "http://www.w3.org/TR/2001/REC-SVG-20010904/DTD/svg10.dtd">
<svg version="1.0" xmlns="http://www.w3.org/2000/svg"
 width="256.000000pt" height="256.000000pt" viewBox="0 0 256.000000 256.000000"
 preserveAspectRatio="xMidYMid meet">

<g transform="translate(0.000000,256.000000) scale(0.100000,-0.100000)"
fill="#B71F35" stroke="none">
<path d="M2100 2529 c-89 -36 -151 -130 -106 -161 18 -13 23 -10 73 41 59 60
102 72 168 46 58 -22 88 -63 92 -129 7 -88 -57 -156 -145 -156 -54 0 -91 19
-129 66 -23 29 -34 35 -51 30 -48 -16 -9 -99 66 -144 85 -50 214 -32 278 40
103 113 67 297 -70 359 -45 20 -135 24 -176 8z"/>
<path d="M1504 1974 c-76 -69 -142 -134 -146 -145 -9 -25 6 -64 27 -73 9 -3
68 -6 131 -6 l114 0 0 -45 0 -45 -640 0 -640 0 0 155 c0 142 1 155 19 165 29
15 693 14 709 -2 7 -7 12 -45 12 -99 0 -104 5 -119 36 -119 37 0 47 32 42 135
-4 101 -20 139 -64 155 -37 14 -740 13 -767 -1 -53 -27 -57 -42 -57 -221 l0
-168 -121 0 c-66 0 -129 -5 -140 -10 -19 -10 -19 -30 -19 -805 0 -436 3 -800
6 -809 10 -26 53 -20 64 10 6 15 10 256 10 615 l0 589 1050 0 1050 0 0 -603
c0 -628 0 -627 42 -627 34 0 38 34 38 289 l0 251 110 0 110 0 0 -244 c0 -135
4 -256 10 -270 11 -30 54 -36 64 -10 3 9 6 176 6 372 0 458 7 442 -196 442
l-104 0 0 350 c0 382 -2 401 -56 437 -25 16 -56 18 -261 21 l-233 3 0 45 0 44
114 0 c63 0 122 3 131 6 22 9 36 49 27 74 -4 11 -70 77 -147 145 -103 93 -146
125 -165 125 -19 0 -62 -32 -166 -126z m281 -54 l107 -95 -111 -3 c-61 -1
-160 -1 -221 0 l-110 3 108 97 c59 54 110 96 113 95 4 -1 55 -45 114 -97z
m-1507 -467 l-3 -128 -97 -3 -98 -3 0 131 0 130 100 0 101 0 -3 -127z m270 0
l-3 -128 -95 0 -95 0 -3 128 -3 127 101 0 101 0 -3 -127z m270 0 l-3 -128 -95
0 -95 0 -3 128 -3 127 101 0 101 0 -3 -127z m272 -3 l0 -131 -97 3 -98 3 -3
128 -3 127 101 0 100 0 0 -130z m270 0 l0 -130 -95 0 -95 0 0 130 0 130 95 0
95 0 0 -130z m270 0 l0 -130 -95 0 -95 0 0 130 0 130 95 0 95 0 0 -130z m270
0 l0 -130 -95 0 -95 0 0 130 0 130 95 0 95 0 0 -130z m268 118 c8 -8 12 -52
12 -130 l0 -118 -100 0 -100 0 0 130 0 130 88 0 c55 0 92 -4 100 -12z m300
-800 c7 -7 12 -38 12 -70 l0 -58 -110 0 -110 0 0 70 0 70 98 0 c63 0 102 -4
110 -12z"/>
<path d="M441 1871 c-7 -13 -7 -23 2 -35 18 -24 244 -20 260 6 8 12 7 21 -2
32 -11 13 -36 16 -132 16 -105 0 -119 -2 -128 -19z"/>
<path d="M366 984 c-12 -12 -16 -38 -16 -114 0 -105 10 -130 51 -130 18 0 19
-10 19 -241 0 -146 4 -248 10 -260 10 -18 23 -19 213 -19 145 0 206 3 215 12
9 9 12 80 12 260 0 238 1 248 19 248 41 0 51 25 51 130 0 76 -4 102 -16 114
-23 24 -535 24 -558 0z m494 -114 l0 -50 -215 0 -215 0 0 50 0 50 215 0 215 0
0 -50z m-70 -245 l0 -115 -145 0 -145 0 0 115 0 115 145 0 145 0 0 -115z m0
-265 l0 -70 -145 0 -145 0 0 70 0 70 145 0 145 0 0 -70z"/>
<path d="M1332 988 c-8 -8 -12 -49 -12 -120 0 -96 2 -108 19 -118 12 -6 101
-10 220 -10 l201 0 0 -115 0 -115 -150 0 -149 0 -3 63 c-3 57 -5 62 -27 65
-13 2 -28 -2 -32 -10 -11 -17 -11 -379 -1 -396 7 -9 57 -12 218 -10 l209 3 3
255 2 256 33 9 32 10 3 109 c2 71 -1 113 -9 122 -16 19 -538 21 -557 2z m498
-118 l0 -50 -220 0 -220 0 0 50 0 50 220 0 220 0 0 -50z m-70 -510 l0 -71
-147 3 -148 3 -3 68 -3 67 151 0 150 0 0 -70z"/>
</g>
</svg>
