<?xml version="1.0" standalone="no"?>
<!DOCTYPE svg PUBLIC "-//W3C//DTD SVG 20010904//EN"
 "http://www.w3.org/TR/2001/REC-SVG-20010904/DTD/svg10.dtd">
<svg version="1.0" xmlns="http://www.w3.org/2000/svg"
 width="512.000000pt" height="512.000000pt" viewBox="0 0 512.000000 512.000000"
 preserveAspectRatio="xMidYMid meet">

<g transform="translate(0.000000,512.000000) scale(0.100000,-0.100000)"
fill="#B71F35" stroke="none">
<path d="M1595 5101 c-42 -22 -80 -72 -133 -177 -59 -118 -82 -265 -63 -409
16 -117 48 -198 133 -333 79 -126 98 -182 98 -288 0 -89 -17 -147 -69 -232
-22 -37 -43 -82 -47 -99 -14 -72 47 -155 125 -168 32 -5 51 -2 86 15 37 18 54
37 95 103 68 109 100 215 107 343 10 179 -27 308 -135 475 -84 130 -96 163
-96 284 -1 106 8 132 89 275 14 25 25 60 25 78 0 113 -115 184 -215 133z"/>
<path d="M2488 5100 c-48 -26 -129 -156 -165 -265 -22 -69 -26 -98 -27 -210
-1 -186 25 -275 132 -442 72 -111 93 -163 99 -246 7 -98 -10 -169 -63 -263
-25 -43 -47 -89 -51 -102 -16 -66 38 -154 108 -172 92 -25 156 25 235 185 119
240 95 508 -66 745 -81 120 -95 161 -95 285 1 118 4 127 85 274 35 63 37 97
10 151 -37 72 -127 99 -202 60z"/>
<path d="M3391 5103 c-41 -21 -80 -73 -132 -178 -48 -97 -69 -191 -69 -310 0
-166 37 -274 164 -477 100 -162 102 -312 5 -473 -52 -85 -59 -135 -30 -192 14
-29 33 -47 66 -63 97 -47 177 4 254 162 72 147 95 303 68 453 -21 113 -48 177
-127 303 -79 127 -100 187 -100 287 0 91 17 147 72 238 34 57 43 82 43 119 0
105 -120 179 -214 131z"/>
<path d="M1475 3004 c-98 -24 -217 -88 -295 -161 -80 -74 -216 -268 -248 -354
-24 -65 -36 -148 -27 -188 l6 -29 232 -4 c216 -4 238 -6 320 -31 92 -29 212
-85 287 -135 24 -17 49 -28 55 -25 5 4 28 19 50 33 69 47 181 99 272 127 82
24 104 27 315 31 l227 4 6 31 c9 46 -10 150 -39 212 -42 92 -164 261 -237 329
-79 73 -198 137 -299 161 -90 20 -537 20 -625 -1z"/>
<path d="M2974 3000 c-66 -17 -148 -53 -201 -87 -22 -14 -21 -15 43 -113 116
-178 155 -291 158 -463 l1 -98 71 -28 c77 -30 179 -85 233 -125 l33 -25 57 39
c83 56 189 107 288 136 80 25 109 28 303 33 l215 6 -1 85 c-1 106 -19 150
-134 319 -94 139 -161 203 -272 261 -134 70 -194 80 -477 79 -207 0 -257 -3
-317 -19z"/>
<path d="M712 1950 c-115 -30 -206 -84 -298 -175 -89 -89 -207 -264 -237 -353
-38 -115 -16 -280 51 -377 l28 -40 581 -3 580 -2 -22 77 c-67 231 -30 431 119
658 l75 115 -42 24 c-146 86 -202 96 -507 95 -218 0 -266 -3 -328 -19z"/>
<path d="M2230 1954 c-117 -31 -228 -95 -314 -180 -63 -63 -203 -272 -229
-343 -32 -86 -29 -216 5 -299 14 -35 37 -78 50 -97 l23 -35 782 0 782 0 25 33
c62 81 92 209 75 317 -13 85 -42 147 -129 274 -124 182 -255 283 -426 326 -67
17 -110 20 -333 19 -192 0 -270 -4 -311 -15z"/>
<path d="M3760 1954 c-64 -17 -185 -73 -217 -100 l-23 -19 56 -85 c70 -106
119 -209 139 -292 29 -122 15 -327 -30 -441 -7 -16 23 -17 586 -15 l593 3 28
40 c45 66 68 148 68 244 -1 111 -18 158 -105 296 -128 203 -271 319 -451 365
-67 17 -110 20 -333 19 -191 0 -270 -4 -311 -15z"/>
<path d="M90 682 c-19 -9 -45 -32 -57 -51 -22 -33 -23 -41 -23 -281 0 -240 1
-248 23 -281 12 -19 38 -42 57 -51 33 -17 172 -18 2470 -18 2298 0 2437 1
2470 18 19 9 45 32 57 51 22 33 23 41 23 281 0 240 -1 248 -23 281 -12 19 -38
42 -57 51 -33 17 -172 18 -2470 18 -2298 0 -2437 -1 -2470 -18z"/>
</g>
</svg>
