<?xml version="1.0" standalone="no"?>
<!DOCTYPE svg PUBLIC "-//W3C//DTD SVG 20010904//EN"
 "http://www.w3.org/TR/2001/REC-SVG-20010904/DTD/svg10.dtd">
<svg version="1.0" xmlns="http://www.w3.org/2000/svg"
 width="512.000000pt" height="512.000000pt" viewBox="0 0 512.000000 512.000000"
 preserveAspectRatio="xMidYMid meet">

<g transform="translate(0.000000,512.000000) scale(0.100000,-0.100000)"
fill="#B71F35" stroke="none">
<path d="M4815 5097 c-39 -21 -56 -54 -730 -1404 -379 -761 -693 -1385 -696
-1388 -4 -3 -78 30 -167 73 -191 95 -262 113 -375 94 -154 -27 -271 -120 -352
-282 -25 -50 -45 -93 -43 -95 2 -2 363 -183 804 -403 l801 -401 52 109 c46 95
53 118 58 188 7 93 -7 162 -50 246 -49 100 -114 153 -297 245 -88 45 -160 84
-160 86 0 3 311 626 690 1385 547 1095 690 1388 690 1418 -1 79 -72 152 -150
152 -19 0 -53 -10 -75 -23z"/>
<path d="M2200 1731 c-111 -113 -205 -178 -385 -266 -194 -95 -418 -168 -669
-216 -54 -10 -110 -26 -123 -34 -63 -42 -83 -142 -40 -206 19 -29 82 -64 412
-231 215 -109 426 -209 470 -224 59 -19 109 -27 191 -31 l110 -6 -3 -26 c-2
-14 6 -46 19 -71 23 -45 25 -46 383 -227 198 -100 375 -185 393 -189 70 -14
102 7 270 174 183 183 343 363 471 531 89 116 211 298 211 313 0 9 -1595 809
-1607 807 -5 -1 -51 -45 -103 -98z"/>
<path d="M158 1179 c-43 -22 -78 -81 -78 -129 0 -17 9 -49 20 -70 23 -45 80
-80 130 -80 76 0 150 74 150 150 0 50 -35 107 -80 130 -49 25 -94 25 -142 -1z"/>
<path d="M758 879 c-43 -22 -78 -81 -78 -129 0 -76 74 -150 150 -150 76 0 150
74 150 150 0 50 -35 107 -80 130 -49 25 -94 25 -142 -1z"/>
<path d="M158 579 c-44 -23 -78 -81 -78 -133 0 -202 156 -391 358 -435 34 -7
176 -11 388 -11 316 0 337 1 374 20 45 23 80 80 80 130 0 50 -35 107 -80 130
-37 19 -58 20 -371 20 -325 0 -332 0 -371 22 -45 25 -78 80 -78 128 0 50 -35
107 -80 130 -49 25 -94 25 -142 -1z"/>
<path d="M1658 279 c-43 -22 -78 -81 -78 -129 0 -76 74 -150 150 -150 76 0
150 74 150 150 0 50 -35 107 -80 130 -49 25 -94 25 -142 -1z"/>
</g>
</svg>
