<?xml version="1.0" standalone="no"?>
<!DOCTYPE svg PUBLIC "-//W3C//DTD SVG 20010904//EN"
 "http://www.w3.org/TR/2001/REC-SVG-20010904/DTD/svg10.dtd">
<svg version="1.0" xmlns="http://www.w3.org/2000/svg"
 width="512.000000pt" height="512.000000pt" viewBox="0 0 512.000000 512.000000"
 preserveAspectRatio="xMidYMid meet">

<g transform="translate(0.000000,512.000000) scale(0.100000,-0.100000)"
fill="#B71F35" stroke="none">
<path d="M2330 5110 c-494 -48 -950 -230 -1350 -538 -195 -150 -448 -432 -594
-662 -63 -99 -186 -351 -230 -471 -49 -134 -102 -340 -128 -499 -31 -195 -31
-565 0 -760 45 -276 116 -498 237 -745 132 -269 269 -460 489 -681 221 -220
412 -357 681 -489 247 -121 469 -192 745 -237 195 -31 565 -31 760 0 276 45
498 116 745 237 269 132 460 269 681 489 220 221 357 412 489 681 88 179 132
296 180 476 63 240 78 371 78 649 0 278 -15 409 -78 649 -48 180 -92 297 -180
476 -132 269 -269 460 -489 681 -221 220 -412 357 -681 489 -246 121 -474 193
-740 235 -147 23 -475 34 -615 20z m35 -497 c20 -201 98 -495 184 -698 260
-611 755 -1106 1366 -1366 203 -86 497 -164 698 -184 77 -8 73 1 53 -130 -144
-918 -863 -1637 -1781 -1781 -131 -20 -122 -24 -130 54 -20 200 -98 494 -184
697 -260 611 -755 1106 -1366 1366 -203 86 -497 164 -697 184 -78 8 -74 -1
-54 130 143 913 857 1632 1771 1780 140 22 132 25 140 -52z m560 47 c39 -6
113 -22 165 -36 524 -138 965 -457 1263 -915 144 -221 272 -546 307 -784 5
-38 13 -85 16 -104 l5 -34 -58 7 c-651 77 -1273 507 -1595 1106 -118 219 -207
495 -234 723 l-7 58 34 -5 c19 -3 66 -11 104 -16z m-2270 -2362 c810 -164
1479 -833 1643 -1643 24 -119 37 -215 28 -215 -30 0 -220 36 -296 56 -525 138
-965 457 -1264 917 -113 172 -214 404 -270 617 -20 76 -56 266 -56 296 0 9 96
-4 215 -28z"/>
</g>
</svg>
